<svg xmlns="http://www.w3.org/2000/svg" width="57.724" height="54" viewBox="0 0 57.724 54"><defs><style>.a{fill:#212121;}</style></defs><g transform="translate(0 -16)"><g transform="translate(23.447 46.533)"><g transform="translate(0 0)"><path class="a" d="M207.22,279.22h-3.61a1.805,1.805,0,1,1,0-3.61h3.61a1.807,1.807,0,0,1,1.805,1.805h1.805a3.614,3.614,0,0,0-3.61-3.61h-.9V272h-1.805v1.805h-.9a3.61,3.61,0,1,0,0,7.22h3.61a1.805,1.805,0,0,1,0,3.61h-3.61a1.807,1.807,0,0,1-1.805-1.805H200a3.614,3.614,0,0,0,3.61,3.61h.9v1.805h1.805v-1.805h.9a3.61,3.61,0,1,0,0-7.22Z" transform="translate(-200 -272)"/></g></g><g transform="translate(0 16)"><g transform="translate(0 0)"><path class="a" d="M41.9,16a15.888,15.888,0,0,0-13.039,6.863,15.82,15.82,0,1,0-14.37,24.725A15.806,15.806,0,0,0,38.049,67.046l-1.083-1.515a13.965,13.965,0,1,1,2.513-2.3l1.416,1.209A15.735,15.735,0,0,0,43.24,47.595,15.709,15.709,0,0,0,51.083,44.7L50,43.186a13.855,13.855,0,0,1-7.743,2.593,15.82,15.82,0,0,0-12.043-7.365,15.72,15.72,0,0,0-.3-13.759,13.96,13.96,0,1,1,22.6,16.231L53.929,42.1A15.817,15.817,0,0,0,41.9,16ZM28.154,38.381A15.808,15.808,0,0,0,15.47,45.775a13.962,13.962,0,1,1,12.684-7.394Z" transform="translate(0 -16)"/></g></g><g transform="translate(35.639 23.22)"><g transform="translate(0 0)"><path class="a" d="M310.318,94.441a2.711,2.711,0,0,1-2.708-2.708v-.9h1.805V89.026H307.61V87.22h1.805V85.415H307.61v-.9a2.708,2.708,0,0,1,5.415,0h1.805a4.513,4.513,0,1,0-9.026,0v.9H304V87.22h1.805v1.805H304v1.805h1.805v.9a4.513,4.513,0,1,0,9.026,0h-1.805A2.711,2.711,0,0,1,310.318,94.441Z" transform="translate(-304 -80)"/></g></g><g transform="translate(9.616 22.633)"><g transform="translate(0 0)"><path class="a" d="M88.931,82.031l5.2-6.064-1.37-1.175-4.73,5.518L83.3,74.792l-1.37,1.175,5.2,6.064v2.374H85.321V86.21h1.805v1.805H85.321v1.805h1.805v.9h1.805v-.9h1.805V88.015H88.931V86.21h1.805V84.405H88.931Z" transform="translate(-81.928 -74.792)"/></g></g></g></svg>