<svg xmlns="http://www.w3.org/2000/svg" width="54" height="53.367" viewBox="0 0 54 53.367"><defs><style>.a{fill:#212121;}</style></defs><g transform="translate(0 -3)"><g transform="translate(31.407 29.235)"><path class="a" d="M304.547,264.092a2.1,2.1,0,1,1,2.406-2.082,1.094,1.094,0,0,0,2.187,0,4.351,4.351,0,0,0-3.5-4.146v-.569a1.094,1.094,0,0,0-2.187,0v.569a4.351,4.351,0,0,0-3.5,4.146,4.445,4.445,0,0,0,4.593,4.269,2.1,2.1,0,1,1-2.406,2.082,1.094,1.094,0,0,0-2.187,0,4.351,4.351,0,0,0,3.5,4.146v.472a1.094,1.094,0,1,0,2.187,0v-.472a4.351,4.351,0,0,0,3.5-4.146A4.445,4.445,0,0,0,304.547,264.092Z" transform="translate(-299.954 -256.201)"/></g><g transform="translate(39.994 25.483)"><path class="a" d="M391.312,226.044a14.248,14.248,0,0,0-5.82-5.151,1.094,1.094,0,1,0-.948,1.971,12.04,12.04,0,0,1,5.422,16.49,1.094,1.094,0,1,0,1.931,1.027,14.232,14.232,0,0,0-.585-14.338Z" transform="translate(-383.924 -220.785)"/></g><g transform="translate(36.541 24.694)"><path class="a" d="M348.167,209h-.074a1.094,1.094,0,0,0,0,2.187h.069a1.094,1.094,0,0,0,.005-2.187Z" transform="translate(-347 -209.001)"/></g><g transform="translate(22.188 30.527)"><g transform="translate(0 0)"><path class="a" d="M221.014,290.809a12.04,12.04,0,0,1-5.422-16.49,1.094,1.094,0,0,0-1.931-1.027,14.223,14.223,0,0,0,6.406,19.489,1.094,1.094,0,1,0,.948-1.971Z" transform="translate(-212.002 -272.711)"/></g></g><g transform="translate(33.316 49.806)"><path class="a" d="M317.54,449h-.063a1.094,1.094,0,0,0-.01,2.187h.073a1.094,1.094,0,0,0,0-2.187Z" transform="translate(-316.378 -448.999)"/></g><g transform="translate(0 3)"><g transform="translate(0 0)"><path class="a" d="M40.859,21.158a4.841,4.841,0,0,0-.469-.861h2.746a4.852,4.852,0,1,0,0-9.7H34.691a4.848,4.848,0,0,0-4-7.594H4.852a4.852,4.852,0,0,0,0,9.7H13.3a4.838,4.838,0,0,0,0,5.484H10.547a4.849,4.849,0,0,0-3.015,8.648,4.843,4.843,0,0,0,0,7.594,4.843,4.843,0,0,0,0,7.594,4.849,4.849,0,0,0,3.015,8.648H22.976A17.926,17.926,0,1,0,40.859,21.158ZM43.137,12.7a2.742,2.742,0,1,1,0,5.484H17.3a2.742,2.742,0,0,1,0-5.484ZM4.852,10.594a2.742,2.742,0,1,1,0-5.484h25.84a2.742,2.742,0,0,1,0,5.484Zm5.7,9.7h25.84a2.741,2.741,0,0,1,1.2.275c-.5-.042-1-.064-1.513-.064a17.874,17.874,0,0,0-12.688,5.273H10.547a2.742,2.742,0,0,1,0-5.484Zm0,7.594H21.58a17.879,17.879,0,0,0-2.711,5.484H10.547a2.742,2.742,0,1,1,0-5.484Zm0,7.594h7.838a17.944,17.944,0,0,0-.065,5.484H10.547a2.742,2.742,0,1,1,0-5.484Zm0,13.078a2.742,2.742,0,1,1,0-5.484h8.2a17.859,17.859,0,0,0,2.531,5.484Zm25.523,5.7a15.82,15.82,0,1,1,15.82-15.82A15.838,15.838,0,0,1,36.07,54.258Z" transform="translate(0 -3)"/></g></g></g></svg>