<svg xmlns="http://www.w3.org/2000/svg" width="30.728" height="54" viewBox="0 0 30.728 54"><defs><style>.a{fill:#212121;}</style></defs><g transform="translate(-110.327)"><path class="a" d="M167.943,350.024a.854.854,0,0,0-.594,1.052l2.517,9.033a1.638,1.638,0,0,0,3.156,0l2.517-9.033a.854.854,0,0,0-1.646-.459l-2.449,8.79L169,350.617A.854.854,0,0,0,167.943,350.024Z" transform="translate(-51.136 -314.407)"/><path class="a" d="M255.629,350.9v9.6a.854.854,0,0,0,1.708-.005v-9.6a.854.854,0,1,0-1.708,0Z" transform="translate(-130.042 -314.451)"/><path class="a" d="M290.882,349.918a.854.854,0,0,0-.854.854v9.615a.854.854,0,1,0,1.708,0v-3.263h.9a3.6,3.6,0,0,0,0-7.206h-1.755Zm3.649,3.6a1.9,1.9,0,0,1-1.895,1.895h-.9v-3.79h.9A1.9,1.9,0,0,1,294.532,353.521Z" transform="translate(-161.088 -314.341)"/><path class="a" d="M202.08,193.512l-2.739-.616a.318.318,0,0,1-.2-.147l-1.432-2.415a2.025,2.025,0,0,0-3.484,0l-1.432,2.415a.318.318,0,0,1-.2.147l-2.739.616a2.025,2.025,0,0,0-1.077,3.313l1.854,2.108a.318.318,0,0,1,.078.239l-.261,2.8a2.025,2.025,0,0,0,2.818,2.048l2.578-1.112a.318.318,0,0,1,.251,0l2.578,1.112a2.031,2.031,0,0,0,1.992-.221,2.008,2.008,0,0,0,.826-1.826l-.261-2.8a.318.318,0,0,1,.078-.239l1.854-2.108a2.025,2.025,0,0,0-1.076-3.313Zm-.206,2.185-1.854,2.108a2.033,2.033,0,0,0-.5,1.525l.261,2.8a.319.319,0,0,1-.441.32l-2.578-1.112a2.043,2.043,0,0,0-1.6,0l-2.578,1.112a.319.319,0,0,1-.441-.32l.261-2.8a2.033,2.033,0,0,0-.5-1.525l-1.854-2.108a.319.319,0,0,1,.168-.518l2.739-.616a2.033,2.033,0,0,0,1.3-.943l1.432-2.415a.319.319,0,0,1,.545,0l1.432,2.415a2.032,2.032,0,0,0,1.3.943l2.739.616A.319.319,0,0,1,201.873,195.7Z" transform="translate(-70.272 -169.903)"/><path class="a" d="M137.827,10.54h-5.8l1.132-2.228a.767.767,0,0,0-.357-1.039.8.8,0,0,0-1.062.349l-1.482,2.918h-2.923l-.756-1.488,3.811-7.5h4.435l-1.671,3.29a.767.767,0,0,0,.357,1.039.8.8,0,0,0,1.062-.349l2.24-4.41A.783.783,0,0,0,136.1,0h-6.2a.8.8,0,0,0-.71.43l-3.5,6.879L122.2.43a.8.8,0,0,0-.71-.43h-6.2a.783.783,0,0,0-.71,1.12l4.786,9.42h-5.8a3.2,3.2,0,0,0-3.229,3.158v6.438a.793.793,0,0,0,1.585,0V13.7a1.628,1.628,0,0,1,1.644-1.608h6.589l1.165,2.293h-.567a.775.775,0,1,0,0,1.55h9.9a.775.775,0,1,0,0-1.55h-1.355l-1.165-2.293h9.706a1.628,1.628,0,0,1,1.644,1.608V40.33a.793.793,0,0,0,1.585,0V13.7A3.2,3.2,0,0,0,137.827,10.54Zm-14.746,3.843L116.561,1.55H121l6.52,12.833Z" transform="translate(-0.001 0)"/><path class="a" d="M140.262,240.028a.825.825,0,0,0-.793.854v6.852a1.713,1.713,0,0,1-1.644,1.772h-24.27a1.713,1.713,0,0,1-1.644-1.772V218.625a.795.795,0,1,0-1.585,0v29.109a3.365,3.365,0,0,0,3.229,3.48h24.27a3.365,3.365,0,0,0,3.229-3.48v-6.852A.825.825,0,0,0,140.262,240.028Z" transform="translate(0 -197.214)"/></g></svg>