<svg xmlns="http://www.w3.org/2000/svg" width="54" height="54" viewBox="0 0 54 54"><defs><style>.a{fill:#212121;}</style></defs><path class="a" d="M368.172,247.086A1.086,1.086,0,1,1,367.086,246,1.086,1.086,0,0,1,368.172,247.086Zm0,0" transform="translate(-327.445 -220.086)"/><path class="a" d="M268.172,187.086A1.086,1.086,0,1,1,267.086,186,1.086,1.086,0,0,1,268.172,187.086Zm0,0" transform="translate(-237.979 -166.406)"/><path class="a" d="M248.172,397.086A1.086,1.086,0,1,1,247.086,396,1.086,1.086,0,0,1,248.172,397.086Zm0,0" transform="translate(-220.086 -354.284)"/><path class="a" d="M98.172,217.086A1.086,1.086,0,1,1,97.086,216,1.086,1.086,0,0,1,98.172,217.086Zm0,0" transform="translate(-85.887 -193.246)"/><path class="a" d="M110.343,324.686A4.343,4.343,0,1,0,106,320.343,4.348,4.348,0,0,0,110.343,324.686Zm0-6.515a2.172,2.172,0,1,1-2.172,2.172A2.174,2.174,0,0,1,110.343,318.172Zm0,0" transform="translate(-94.881 -282.854)"/><path class="a" d="M164.686,90.343a4.343,4.343,0,1,0-4.343,4.343A4.348,4.348,0,0,0,164.686,90.343Zm-6.515,0a2.172,2.172,0,1,1,2.172,2.172A2.174,2.174,0,0,1,158.172,90.343Zm0,0" transform="translate(-139.637 -76.979)"/><path class="a" d="M306,310.343A4.343,4.343,0,1,0,310.343,306,4.348,4.348,0,0,0,306,310.343Zm6.515,0a2.172,2.172,0,1,1-2.172-2.172A2.174,2.174,0,0,1,312.515,310.343Zm0,0" transform="translate(-273.903 -273.903)"/><path class="a" d="M209.257,252.515A3.257,3.257,0,1,0,206,249.257,3.261,3.261,0,0,0,209.257,252.515Zm0-4.343a1.086,1.086,0,1,1-1.086,1.086A1.087,1.087,0,0,1,209.257,248.172Zm0,0" transform="translate(-184.359 -220.156)"/><path class="a" d="M248.172,493.086A1.086,1.086,0,1,1,247.086,492,1.086,1.086,0,0,1,248.172,493.086Zm0,0" transform="translate(-220.086 -440.172)"/><path class="a" d="M52.144,22.188a6.619,6.619,0,0,1-2.679.588,5.722,5.722,0,0,1-5.022-2.945,1.055,1.055,0,0,0-1.247-.542,6.747,6.747,0,0,1-1.958.323,6.863,6.863,0,0,1-6.855-6.854,6.744,6.744,0,0,1,.323-1.958,1.054,1.054,0,0,0-.542-1.246,5.72,5.72,0,0,1-2.945-5.02,6.615,6.615,0,0,1,.588-2.678A1.054,1.054,0,0,0,31.026.338,26.087,26.087,0,0,0,27,0C12.447,0,0,12.421,0,26.993,0,39.648,9.49,51.047,22.073,53.508a1.054,1.054,0,1,0,.4-2.07A25.4,25.4,0,0,1,2.109,26.993,25.221,25.221,0,0,1,27,2.109a21.66,21.66,0,0,1,2.424.143,9.034,9.034,0,0,0-.314,2.283A8.023,8.023,0,0,0,32.474,11a8.043,8.043,0,0,0-.2,1.756,8.974,8.974,0,0,0,8.965,8.963,8.049,8.049,0,0,0,1.756-.2,8.026,8.026,0,0,0,6.47,3.364,9.041,9.041,0,0,0,2.283-.314,21.643,21.643,0,0,1,.143,2.423A25.4,25.4,0,0,1,31.522,51.438a1.054,1.054,0,1,0,.4,2.07C44.51,51.047,54,39.648,54,26.993a26.068,26.068,0,0,0-.338-4.025A1.055,1.055,0,0,0,52.144,22.188Zm0,0"/></svg>