<svg xmlns="http://www.w3.org/2000/svg" width="54" height="51.836" viewBox="0 0 54 51.836"><defs><style>.a{fill:#212121;}</style></defs><g transform="translate(0 -10.262)"><g transform="translate(0 10.262)"><path class="a" d="M53.9,38.674A21.288,21.288,0,0,0,37.342,20.008v-2.68a3.586,3.586,0,0,0-.865-7.066H28.883a3.586,3.586,0,0,0-.866,7.066v2.687a21.178,21.178,0,0,0-10.386,5.713,21.407,21.407,0,0,0-1.791,2.032c-.026,0-.053,0-.08,0H8.244a1.055,1.055,0,1,0,0,2.109h6.161a21.143,21.143,0,0,0-1.871,4.054H1.055a1.055,1.055,0,0,0,0,2.109H11.938a21.445,21.445,0,0,0-.523,4.054H6.75a1.055,1.055,0,0,0,0,2.109h4.7a21.413,21.413,0,0,0,.659,4.054H5.274a1.055,1.055,0,1,0,0,2.109h7.506A21.3,21.3,0,0,0,30.59,61.995q1.045.1,2.09.1a21.356,21.356,0,0,0,11.627-3.436,1.055,1.055,0,0,0-1.151-1.768,19.2,19.2,0,1,1,5.654-5.661,1.055,1.055,0,1,0,1.769,1.149A21.373,21.373,0,0,0,53.9,38.674ZM27.406,13.848a1.478,1.478,0,0,1,1.477-1.477h7.594a1.477,1.477,0,1,1,0,2.953H28.883A1.478,1.478,0,0,1,27.406,13.848Zm2.72,5.8V17.434h5.106v2.215A21.49,21.49,0,0,0,30.127,19.652Z" transform="translate(0 -10.262)"/><path class="a" d="M436.838,425.5a1.069,1.069,0,1,0,.755.313A1.074,1.074,0,0,0,436.838,425.5Z" transform="translate(-389.913 -381.809)"/><path class="a" d="M171.445,144.609a16.573,16.573,0,1,0,16.573,16.573A16.592,16.592,0,0,0,171.445,144.609Zm0,31.01a14.436,14.436,0,1,1,14.436-14.436A14.453,14.453,0,0,1,171.445,175.619Z" transform="translate(-139.025 -130.927)"/><path class="a" d="M269.453,219.724l-5.292,5.291a3.311,3.311,0,0,0-2.933,0l-2.368-2.368a1.068,1.068,0,0,0-1.511,1.511l2.368,2.368a3.32,3.32,0,1,0,5.955,0l5.136-5.136h0l.155-.155a1.068,1.068,0,0,0-1.511-1.511Zm-6.758,9.452a1.183,1.183,0,1,1,1.183-1.183A1.184,1.184,0,0,1,262.695,229.176Z" transform="translate(-230.05 -197.436)"/><path class="a" d="M399.713,289.86h-.99a1.068,1.068,0,0,0,0,2.137h.99a1.068,1.068,0,0,0,0-2.137Z" transform="translate(-355.747 -260.387)"/><path class="a" d="M195.14,289.616h-.99a1.068,1.068,0,0,0,0,2.137h.99a1.068,1.068,0,1,0,0-2.137Z" transform="translate(-172.734 -260.169)"/><path class="a" d="M301.191,185.945a1.068,1.068,0,0,0,1.068-1.068v-.99a1.068,1.068,0,0,0-2.137,0v.99A1.068,1.068,0,0,0,301.191,185.945Z" transform="translate(-268.486 -164.634)"/><path class="a" d="M300.947,387.393a1.068,1.068,0,0,0-1.068,1.068v.99a1.068,1.068,0,1,0,2.137,0v-.99A1.068,1.068,0,0,0,300.947,387.393Z" transform="translate(-268.267 -347.649)"/><path class="a" d="M1.068,351.44a1.068,1.068,0,1,0,.755,1.824,1.068,1.068,0,0,0-.755-1.824Z" transform="translate(0 -315.476)"/></g></g></svg>