<svg xmlns="http://www.w3.org/2000/svg" width="54" height="53.998" viewBox="0 0 54 53.998"><defs><style>.a{fill:#212121;}</style></defs><g transform="translate(0 -0.009)"><path class="a" d="M53.643,18.382a1.834,1.834,0,0,0-1.207-.733L36.748,15.226V1.855A1.848,1.848,0,0,0,34.9.009H1.846A1.848,1.848,0,0,0,0,1.855V34.933a1.848,1.848,0,0,0,1.846,1.846H14.165L12.612,46.836a1.862,1.862,0,0,0,1.542,2.106l32.67,5.045a1.887,1.887,0,0,0,2.106-1.542l.845-5.47a.791.791,0,0,0-1.563-.241c-.106.689-.6,5.773-1.146,5.691L14.4,47.378a.264.264,0,0,1-.22-.3l1.59-10.3h1.77l-1.287,8.331a.791.791,0,0,0,.661.9l28.17,4.35a.835.835,0,0,0,.9-.661l4.358-28.22a.791.791,0,0,0-.661-.9l-12.931-2V16.827l15.446,2.385a.264.264,0,0,1,.22.3L48.827,42.744a.792.792,0,0,0,1.563.241l3.588-23.231A1.834,1.834,0,0,0,53.643,18.382ZM1.582,34.933V1.855a.264.264,0,0,1,.264-.264H34.9a.264.264,0,0,1,.264.264V34.933a.264.264,0,0,1-.264.264H1.846A.264.264,0,0,1,1.582,34.933ZM48.656,22.022,44.54,48.678,17.934,44.569l1.2-7.791H34.9a1.848,1.848,0,0,0,1.846-1.846V20.182Z" transform="translate(0 0)"/><path class="a" d="M60.825,31.455H32.376a.789.789,0,0,0-.79.79v3.947a.79.79,0,0,0,1.579,0V33.034H60.036V59.955H33.165V40.39a.79.79,0,0,0-1.579,0V60.745a.789.789,0,0,0,.79.79h28.45a.789.789,0,0,0,.79-.79v-28.5a.789.789,0,0,0-.789-.79Z" transform="translate(-28.261 -28.136)"/><path class="a" d="M96.387,112.939a.787.787,0,0,0,.3-.061,20.808,20.808,0,0,0,4.335-2.592c2.919-2.278,4.481-4.933,4.518-7.679.039-2.872-2.149-5.669-5.158-5.669a5,5,0,0,0-4,2.08,5,5,0,0,0-4-2.08A5.432,5.432,0,0,0,87.23,102.6c0,6.61,8.5,10.137,8.859,10.284a.788.788,0,0,0,.3.058ZM88.809,102.6a3.858,3.858,0,0,1,3.579-4.079,3.6,3.6,0,0,1,3.264,2.4.8.8,0,0,0,1.468,0,3.6,3.6,0,0,1,3.264-2.4,3.871,3.871,0,0,1,3.579,4.068c-.066,4.887-6.149,8.027-7.581,8.7C94.94,110.625,88.809,107.526,88.809,102.6Z" transform="translate(-78.021 -86.699)"/></g></svg>