<svg xmlns="http://www.w3.org/2000/svg" width="18" height="16" viewBox="0 0 18 16"><defs><style>.a{fill:none;stroke-linecap:round;stroke-linejoin:round;}.b,.c{stroke:none;}.c{fill:#000;}</style></defs><g class="a" transform="translate(-3 -4.5)"><path class="b" d="M21,18.722A1.789,1.789,0,0,1,19.2,20.5H4.8A1.789,1.789,0,0,1,3,18.722V6.278A1.789,1.789,0,0,1,4.8,4.5H9.3l1.8,2.667h8.1A1.789,1.789,0,0,1,21,8.944Z"/><path class="c" d="M 19 18.5 L 19 9.166669845581055 L 11.10000038146973 9.166669845581055 C 10.43535995483398 9.166669845581055 9.814149856567383 8.83650016784668 9.442299842834473 8.285610198974609 L 8.237014770507812 6.5 L 5 6.5 L 5 18.5 L 19 18.5 M 19.20000076293945 20.5 L 4.800000190734863 20.5 C 3.805890083312988 20.5 3 19.70405960083008 3 18.72221946716309 L 3 6.277780055999756 C 3 5.295939922332764 3.805890083312988 4.5 4.800000190734863 4.5 L 9.300000190734863 4.5 L 11.10000038146973 7.166669845581055 L 19.20000076293945 7.166669845581055 C 20.19411087036133 7.166669845581055 21 7.962600231170654 21 8.944439888000488 L 21 18.72221946716309 C 21 19.70405960083008 20.19411087036133 20.5 19.20000076293945 20.5 Z"/></g></svg>