<svg xmlns="http://www.w3.org/2000/svg" width="16" height="17.778" viewBox="0 0 16 17.778"><defs><style>.a,.b{fill:none;stroke-linecap:round;stroke-linejoin:round;}.b{stroke:#000;stroke-width:2px;}.c,.d{stroke:none;}.d{fill:#000;}</style></defs><g class="a" transform="translate(-4.5 -3)"><path class="c" d="M4.5,9.222,12.5,3l8,6.222V19a1.778,1.778,0,0,1-1.778,1.778H6.278A1.778,1.778,0,0,1,4.5,19Z"/><path class="d" d="M 12.5 5.533716201782227 L 6.5 10.2003812789917 L 6.5 18.77777862548828 L 18.5 18.77777862548828 L 18.5 10.2003812789917 L 12.5 5.533716201782227 M 12.5 3 L 20.5 9.222219467163086 L 20.5 19 C 20.5 19.98184013366699 19.70405960083008 20.77777862548828 18.72221946716309 20.77777862548828 L 6.277780532836914 20.77777862548828 C 5.295940399169922 20.77777862548828 4.5 19.98184013366699 4.5 19 L 4.5 9.222219467163086 L 12.5 3 Z"/></g><path class="b" d="M13.5,24V18h4v6" transform="translate(-7.5 -8.111)"/></svg>