<svg xmlns="http://www.w3.org/2000/svg" width="25" height="25" viewBox="0 0 25 25"><defs><style>.a,.b{stroke:#000;}.b{fill-rule:evenodd;}</style></defs><g transform="translate(0.497 0.499)"><path class="a" d="M15,19.127a1.5,1.5,0,1,1,1.5,1.5A1.5,1.5,0,0,1,15,19.127Zm1.572-2.1c.5,0,.756-.36.831-.941.06-.8.3-1.223,1.271-1.89a3.409,3.409,0,0,0,1.574-2.979,3.2,3.2,0,0,0-3.394-3.341,3.174,3.174,0,0,0-3.15,1.935,2.566,2.566,0,0,0-.207,1.035c0,.589.3.96.817.96.408,0,.683-.221.846-.765a1.609,1.609,0,0,1,1.612-1.373,1.516,1.516,0,0,1,1.545,1.626c0,.845-.312,1.328-1.233,1.988a2.788,2.788,0,0,0-1.389,2.46v.167C15.7,16.551,16.01,17.026,16.576,17.026Z" transform="translate(-4.498 -2.624)"/><path class="b" d="M15.412,3.77,14.031,2.354,15.1,1.307l.933.955,1.335-.017a4.336,4.336,0,0,1,4.387,4.387l-.015,1.335L22.7,8.9a4.336,4.336,0,0,1,0,6.2l-.955.933.017,1.335a4.336,4.336,0,0,1-4.387,4.387l-1.335-.015L15.1,22.7a4.336,4.336,0,0,1-6.2,0l-.933-.955-1.335.017A4.336,4.336,0,0,1,2.248,17.37l.015-1.335L1.309,15.1a4.336,4.336,0,0,1,0-6.2l.955-.933L2.247,6.633A4.336,4.336,0,0,1,6.634,2.246l1.335.015L8.9,1.307a4.336,4.336,0,0,1,6.2,0L14.031,2.354a2.835,2.835,0,0,0-4.057,0L8.594,3.77l-1.98-.024A2.835,2.835,0,0,0,3.747,6.615l.024,1.978L2.355,9.974a2.835,2.835,0,0,0,0,4.057l1.416,1.38-.024,1.98a2.835,2.835,0,0,0,2.868,2.867l1.978-.024L9.974,21.65a2.835,2.835,0,0,0,4.057,0l1.38-1.416,1.98.024a2.835,2.835,0,0,0,2.867-2.868l-.024-1.978,1.416-1.382a2.835,2.835,0,0,0,0-4.057l-1.416-1.38.024-1.98A2.835,2.835,0,0,0,17.39,3.746Z" transform="translate(0 0)"/></g></svg>